<svg xmlns="http://www.w3.org/2000/svg" xmlns:xlink="http://www.w3.org/1999/xlink" width="500" zoomAndPan="magnify" viewBox="0 0 375 374.999991" height="500" preserveAspectRatio="xMidYMid meet" version="1.0"><defs><g/><clipPath id="e56f7ffc8c"><path d="M 107.695312 257.328125 L 157 257.328125 L 157 273.828125 L 107.695312 273.828125 Z M 107.695312 257.328125 " clip-rule="nonzero"/></clipPath></defs><path fill="#233dff" d="M 187.5 0 C 84.125 0 0 84.125 0 187.5 C 0 290.875 84.125 375 187.5 375 C 290.875 375 375 290.875 375 187.5 C 375 84.125 290.875 0 187.5 0 Z M 283 283 C 280.625 285.5 277.375 286.75 274.25 286.75 C 271 286.75 267.75 285.5 265.375 283 L 214.375 232 C 199.5 243 181.875 248.625 164.125 248.625 C 142.5 248.625 120.875 240.375 104.5 223.875 C 71.5 191 71.5 137.375 104.5 104.5 C 137.375 71.5 190.875 71.5 223.875 104.5 C 253.875 134.375 256.5 181.25 232 214.375 L 283 265.375 C 287.875 270.25 287.875 278.125 283 283 Z M 283 283 " fill-opacity="1" fill-rule="nonzero"/><path fill="#233dff" d="M 164.125 104.75 C 149 104.75 133.75 110.5 122.125 122.125 C 99 145.25 99 183 122.125 206.25 C 145.25 229.375 183 229.375 206.25 206.25 C 229.375 183 229.375 145.25 206.25 122.125 C 194.625 110.5 179.375 104.75 164.125 104.75 Z M 164.125 104.75 " fill-opacity="1" fill-rule="nonzero"/><g clip-path="url(#e56f7ffc8c)"><path fill="#fafaff" d="M 115.867188 257.328125 L 148.839844 257.328125 C 153.328125 257.328125 156.972656 260.96875 156.972656 265.460938 C 156.972656 269.953125 153.328125 273.59375 148.839844 273.59375 L 115.867188 273.59375 C 111.375 273.59375 107.734375 269.953125 107.734375 265.460938 C 107.734375 260.96875 111.375 257.328125 115.867188 257.328125 Z M 117.382812 267.617188 L 119.957031 270.191406 C 120.105469 270.339844 120.347656 270.339844 120.496094 270.191406 L 121.035156 269.652344 C 121.183594 269.503906 121.183594 269.261719 121.035156 269.113281 L 118.460938 266.539062 C 119.296875 265.214844 119.136719 263.445312 117.984375 262.289062 C 116.644531 260.949219 114.472656 260.949219 113.136719 262.289062 C 111.796875 263.628906 111.796875 265.800781 113.136719 267.136719 C 114.289062 268.292969 116.058594 268.453125 117.382812 267.617188 Z M 117.125 266.28125 C 116.238281 267.167969 114.800781 267.167969 113.914062 266.28125 C 113.027344 265.394531 113.027344 263.957031 113.914062 263.070312 C 114.800781 262.183594 116.238281 262.183594 117.125 263.070312 C 118.011719 263.957031 118.011719 265.394531 117.125 266.28125 Z M 117.125 266.28125 " fill-opacity="1" fill-rule="nonzero"/></g><g fill="#fafaff" fill-opacity="1"><g transform="translate(157.019409, 273.746041)"><g><path d="M 7.859375 -2.8125 C 8.035156 -2.96875 8.1875 -3.140625 8.3125 -3.328125 C 8.445312 -3.515625 8.515625 -3.726562 8.515625 -3.96875 C 8.515625 -4.269531 8.40625 -4.523438 8.1875 -4.734375 C 7.96875 -4.941406 7.703125 -5.113281 7.390625 -5.25 C 7.085938 -5.394531 6.765625 -5.503906 6.421875 -5.578125 C 6.085938 -5.648438 5.804688 -5.71875 5.578125 -5.78125 C 4.960938 -5.925781 4.378906 -6.109375 3.828125 -6.328125 C 3.285156 -6.546875 2.8125 -6.804688 2.40625 -7.109375 C 2 -7.421875 1.675781 -7.785156 1.4375 -8.203125 C 1.207031 -8.628906 1.09375 -9.132812 1.09375 -9.71875 C 1.09375 -10.269531 1.222656 -10.785156 1.484375 -11.265625 C 1.753906 -11.742188 2.109375 -12.164062 2.546875 -12.53125 C 2.992188 -12.894531 3.507812 -13.1875 4.09375 -13.40625 C 4.6875 -13.625 5.3125 -13.734375 5.96875 -13.734375 C 6.550781 -13.734375 7.101562 -13.644531 7.625 -13.46875 C 8.15625 -13.300781 8.632812 -13.070312 9.0625 -12.78125 C 9.488281 -12.488281 9.847656 -12.132812 10.140625 -11.71875 C 10.429688 -11.3125 10.625 -10.851562 10.71875 -10.34375 L 8.265625 -9.75 C 8.148438 -10.195312 7.90625 -10.570312 7.53125 -10.875 C 7.15625 -11.175781 6.632812 -11.328125 5.96875 -11.328125 C 5.75 -11.328125 5.515625 -11.296875 5.265625 -11.234375 C 5.023438 -11.171875 4.800781 -11.070312 4.59375 -10.9375 C 4.382812 -10.800781 4.207031 -10.640625 4.0625 -10.453125 C 3.925781 -10.265625 3.859375 -10.050781 3.859375 -9.8125 C 3.859375 -9.550781 3.9375 -9.320312 4.09375 -9.125 C 4.257812 -8.9375 4.453125 -8.78125 4.671875 -8.65625 C 4.898438 -8.539062 5.144531 -8.445312 5.40625 -8.375 C 5.675781 -8.300781 5.921875 -8.234375 6.140625 -8.171875 C 7.140625 -7.929688 7.96875 -7.671875 8.625 -7.390625 C 9.28125 -7.109375 9.804688 -6.796875 10.203125 -6.453125 C 10.597656 -6.117188 10.875 -5.75 11.03125 -5.34375 C 11.195312 -4.9375 11.28125 -4.476562 11.28125 -3.96875 C 11.28125 -3.375 11.140625 -2.8125 10.859375 -2.28125 C 10.585938 -1.757812 10.210938 -1.304688 9.734375 -0.921875 C 9.253906 -0.535156 8.679688 -0.234375 8.015625 -0.015625 C 7.347656 0.203125 6.628906 0.3125 5.859375 0.3125 C 4.691406 0.3125 3.648438 0.0234375 2.734375 -0.546875 C 1.828125 -1.117188 1.21875 -1.882812 0.90625 -2.84375 L 3.21875 -3.890625 C 3.519531 -3.234375 3.90625 -2.785156 4.375 -2.546875 C 4.84375 -2.316406 5.375 -2.203125 5.96875 -2.203125 C 6.726562 -2.203125 7.359375 -2.40625 7.859375 -2.8125 Z M 7.859375 -2.8125 "/></g></g></g><g fill="#fafaff" fill-opacity="1"><g transform="translate(169.13588, 273.746041)"><g><path d="M 7.984375 0.34375 C 7.003906 0.34375 6.085938 0.160156 5.234375 -0.203125 C 4.378906 -0.578125 3.628906 -1.082031 2.984375 -1.71875 C 2.347656 -2.351562 1.847656 -3.101562 1.484375 -3.96875 C 1.117188 -4.832031 0.9375 -5.753906 0.9375 -6.734375 C 0.9375 -7.710938 1.109375 -8.632812 1.453125 -9.5 C 1.796875 -10.363281 2.265625 -11.113281 2.859375 -11.75 C 3.453125 -12.394531 4.140625 -12.898438 4.921875 -13.265625 C 5.710938 -13.628906 6.5625 -13.8125 7.46875 -13.8125 C 8.382812 -13.8125 9.234375 -13.648438 10.015625 -13.328125 C 10.796875 -13.015625 11.472656 -12.519531 12.046875 -11.84375 C 12.617188 -11.164062 13.066406 -10.300781 13.390625 -9.25 C 13.710938 -8.207031 13.875 -6.96875 13.875 -5.53125 L 3.828125 -5.53125 C 3.960938 -5.039062 4.171875 -4.582031 4.453125 -4.15625 C 4.734375 -3.738281 5.066406 -3.375 5.453125 -3.0625 C 5.835938 -2.75 6.269531 -2.503906 6.75 -2.328125 C 7.226562 -2.160156 7.734375 -2.078125 8.265625 -2.078125 C 8.972656 -2.078125 9.628906 -2.207031 10.234375 -2.46875 C 10.847656 -2.738281 11.375 -3.09375 11.8125 -3.53125 L 13.5 -1.828125 C 12.84375 -1.171875 12.039062 -0.644531 11.09375 -0.25 C 10.144531 0.144531 9.109375 0.34375 7.984375 0.34375 Z M 7.46875 -11.328125 C 7.039062 -11.328125 6.632812 -11.242188 6.25 -11.078125 C 5.863281 -10.910156 5.503906 -10.675781 5.171875 -10.375 C 4.835938 -10.070312 4.550781 -9.710938 4.3125 -9.296875 C 4.082031 -8.890625 3.914062 -8.441406 3.8125 -7.953125 L 10.9375 -7.953125 C 10.894531 -8.398438 10.789062 -8.828125 10.625 -9.234375 C 10.457031 -9.648438 10.222656 -10.015625 9.921875 -10.328125 C 9.617188 -10.640625 9.265625 -10.882812 8.859375 -11.0625 C 8.460938 -11.238281 8 -11.328125 7.46875 -11.328125 Z M 7.46875 -11.328125 "/></g></g></g><g fill="#fafaff" fill-opacity="1"><g transform="translate(184.070137, 273.746041)"><g><path d="M 14.375 -13.5 L 14.375 0 L 12.0625 0 L 11.640625 -1.546875 C 11.171875 -0.929688 10.566406 -0.460938 9.828125 -0.140625 C 9.097656 0.179688 8.359375 0.34375 7.609375 0.34375 C 6.671875 0.34375 5.789062 0.160156 4.96875 -0.203125 C 4.15625 -0.578125 3.441406 -1.082031 2.828125 -1.71875 C 2.222656 -2.351562 1.738281 -3.101562 1.375 -3.96875 C 1.019531 -4.832031 0.84375 -5.753906 0.84375 -6.734375 C 0.84375 -7.710938 1.019531 -8.632812 1.375 -9.5 C 1.738281 -10.363281 2.222656 -11.113281 2.828125 -11.75 C 3.441406 -12.394531 4.15625 -12.898438 4.96875 -13.265625 C 5.789062 -13.628906 6.671875 -13.8125 7.609375 -13.8125 C 8.359375 -13.8125 9.082031 -13.664062 9.78125 -13.375 C 10.476562 -13.082031 11.097656 -12.628906 11.640625 -12.015625 L 12.0625 -13.5 Z M 7.609375 -2.078125 C 8.148438 -2.078125 8.664062 -2.195312 9.15625 -2.4375 C 9.644531 -2.6875 10.066406 -3.023438 10.421875 -3.453125 C 10.785156 -3.878906 11.066406 -4.375 11.265625 -4.9375 C 11.472656 -5.5 11.578125 -6.097656 11.578125 -6.734375 C 11.578125 -7.367188 11.472656 -7.96875 11.265625 -8.53125 C 11.066406 -9.101562 10.785156 -9.597656 10.421875 -10.015625 C 10.066406 -10.441406 9.644531 -10.773438 9.15625 -11.015625 C 8.664062 -11.265625 8.148438 -11.390625 7.609375 -11.390625 C 7.066406 -11.390625 6.550781 -11.265625 6.0625 -11.015625 C 5.570312 -10.773438 5.144531 -10.441406 4.78125 -10.015625 C 4.425781 -9.597656 4.144531 -9.101562 3.9375 -8.53125 C 3.738281 -7.96875 3.640625 -7.367188 3.640625 -6.734375 C 3.640625 -6.097656 3.738281 -5.5 3.9375 -4.9375 C 4.144531 -4.375 4.425781 -3.878906 4.78125 -3.453125 C 5.144531 -3.023438 5.570312 -2.6875 6.0625 -2.4375 C 6.550781 -2.195312 7.066406 -2.078125 7.609375 -2.078125 Z M 7.609375 -2.078125 "/></g></g></g><g fill="#fafaff" fill-opacity="1"><g transform="translate(199.652482, 273.746041)"><g><path d="M 9.71875 -11 C 9.59375 -11.050781 9.460938 -11.101562 9.328125 -11.15625 C 9.210938 -11.195312 9.078125 -11.234375 8.921875 -11.265625 C 8.773438 -11.304688 8.617188 -11.328125 8.453125 -11.328125 C 7.910156 -11.328125 7.40625 -11.238281 6.9375 -11.0625 C 6.46875 -10.882812 6.0625 -10.644531 5.71875 -10.34375 C 5.382812 -10.039062 5.117188 -9.6875 4.921875 -9.28125 C 4.722656 -8.882812 4.625 -8.457031 4.625 -8 L 4.59375 0 L 1.859375 0 L 1.859375 -13.5 L 4.03125 -13.5 L 4.59375 -12.015625 C 4.96875 -12.554688 5.457031 -12.988281 6.0625 -13.3125 C 6.675781 -13.644531 7.445312 -13.8125 8.375 -13.8125 C 8.976562 -13.8125 9.660156 -13.726562 10.421875 -13.5625 Z M 9.71875 -11 "/></g></g></g><g fill="#fafaff" fill-opacity="1"><g transform="translate(210.303704, 273.746041)"><g><path d="M 7.78125 0.34375 C 6.84375 0.34375 5.960938 0.160156 5.140625 -0.203125 C 4.328125 -0.578125 3.613281 -1.082031 3 -1.71875 C 2.382812 -2.351562 1.898438 -3.101562 1.546875 -3.96875 C 1.191406 -4.832031 1.015625 -5.753906 1.015625 -6.734375 C 1.015625 -7.710938 1.191406 -8.632812 1.546875 -9.5 C 1.898438 -10.363281 2.382812 -11.113281 3 -11.75 C 3.613281 -12.394531 4.328125 -12.898438 5.140625 -13.265625 C 5.960938 -13.628906 6.84375 -13.8125 7.78125 -13.8125 C 8.875 -13.8125 9.878906 -13.566406 10.796875 -13.078125 C 11.710938 -12.585938 12.484375 -11.921875 13.109375 -11.078125 L 11.1875 -9.578125 C 10.8125 -10.128906 10.335938 -10.554688 9.765625 -10.859375 C 9.191406 -11.171875 8.578125 -11.328125 7.921875 -11.328125 C 7.359375 -11.328125 6.820312 -11.207031 6.3125 -10.96875 C 5.800781 -10.738281 5.359375 -10.414062 4.984375 -10 C 4.609375 -9.59375 4.3125 -9.101562 4.09375 -8.53125 C 3.882812 -7.96875 3.78125 -7.367188 3.78125 -6.734375 C 3.78125 -6.097656 3.882812 -5.5 4.09375 -4.9375 C 4.3125 -4.375 4.609375 -3.878906 4.984375 -3.453125 C 5.359375 -3.023438 5.800781 -2.6875 6.3125 -2.4375 C 6.820312 -2.195312 7.359375 -2.078125 7.921875 -2.078125 C 8.648438 -2.078125 9.316406 -2.273438 9.921875 -2.671875 C 10.523438 -3.066406 11.015625 -3.59375 11.390625 -4.25 L 13.25 -2.625 C 12.644531 -1.71875 11.863281 -0.992188 10.90625 -0.453125 C 9.945312 0.078125 8.90625 0.34375 7.78125 0.34375 Z M 7.78125 0.34375 "/></g></g></g><g fill="#fafaff" fill-opacity="1"><g transform="translate(224.618048, 273.746041)"><g><path d="M 4.3125 0 L 1.578125 0 L 1.578125 -20.578125 L 4.3125 -20.578125 L 4.3125 -12.265625 C 4.820312 -12.828125 5.351562 -13.222656 5.90625 -13.453125 C 6.457031 -13.691406 7.101562 -13.8125 7.84375 -13.8125 C 8.78125 -13.8125 9.617188 -13.628906 10.359375 -13.265625 C 11.097656 -12.898438 11.726562 -12.394531 12.25 -11.75 C 12.78125 -11.113281 13.179688 -10.363281 13.453125 -9.5 C 13.734375 -8.632812 13.875 -7.710938 13.875 -6.734375 L 13.875 0 L 11.109375 0 L 11.109375 -6.734375 C 11.109375 -7.367188 11.019531 -7.96875 10.84375 -8.53125 C 10.664062 -9.101562 10.421875 -9.59375 10.109375 -10 C 9.796875 -10.414062 9.4375 -10.738281 9.03125 -10.96875 C 8.625 -11.207031 8.1875 -11.328125 7.71875 -11.328125 C 7.320312 -11.328125 6.925781 -11.25 6.53125 -11.09375 C 6.144531 -10.9375 5.785156 -10.675781 5.453125 -10.3125 C 5.128906 -9.957031 4.859375 -9.488281 4.640625 -8.90625 C 4.421875 -8.320312 4.3125 -7.617188 4.3125 -6.796875 Z M 4.3125 0 "/></g></g></g><g fill="#fafaff" fill-opacity="1"><g transform="translate(73.290592, 273.746041)"><g><path d="M 3.53125 0 L 0.3125 0 L 8.625 -19.984375 L 11.859375 -19.984375 L 20.1875 0 L 17 0 L 14.375 -6.25 L 6.109375 -6.25 Z M 7.25 -8.96875 L 13.25 -8.96875 L 10.265625 -16.171875 Z M 7.25 -8.96875 "/></g></g></g><g fill="#fafaff" fill-opacity="1"><g transform="translate(93.916771, 273.746041)"><g><path d="M 1.65625 0 L 1.65625 -19.984375 L 4.625 -19.984375 L 4.625 -2.734375 L 13.875 -2.734375 L 13.875 0 Z M 1.65625 0 "/></g></g></g></svg>