<?xml version="1.0" standalone="no"?>
<!DOCTYPE svg PUBLIC "-//W3C//DTD SVG 20010904//EN"
 "http://www.w3.org/TR/2001/REC-SVG-20010904/DTD/svg10.dtd">
<svg version="1.0" xmlns="http://www.w3.org/2000/svg"
 width="500.000000pt" height="500.000000pt" viewBox="0 0 500.000000 500.000000"
 preserveAspectRatio="xMidYMid meet">
<metadata>
Created by potrace 1.16, written by Peter Selinger 2001-2019
</metadata>
<g transform="translate(0.000000,500.000000) scale(0.100000,-0.100000)"
fill="#000000" stroke="none">
<path d="M2255 4994 c-311 -45 -469 -83 -665 -161 -828 -329 -1398 -1027
-1563 -1917 -20 -108 -22 -153 -22 -411 1 -319 11 -409 76 -654 155 -587 525
-1098 1044 -1445 116 -78 378 -210 516 -260 130 -48 339 -101 479 -123 164
-26 587 -26 750 0 196 31 356 75 575 157 95 36 316 153 422 222 428 281 771
698 956 1163 132 332 185 633 174 1000 -8 278 -42 477 -122 720 -266 808 -914
1416 -1748 1640 -193 52 -321 67 -592 70 -137 2 -263 1 -280 -1z m105 -1074
c584 -93 1008 -642 941 -1220 -21 -176 -80 -349 -166 -480 -25 -39 -45 -74
-45 -78 0 -3 161 -169 359 -367 383 -385 377 -377 364 -462 -8 -49 -64 -108
-117 -123 -85 -24 -86 -22 -478 368 l-356 355 -34 -21 c-210 -130 -374 -187
-582 -198 -327 -19 -667 121 -887 364 -55 61 -142 187 -179 262 -96 189 -134
462 -95 684 80 458 448 828 908 911 88 16 279 18 367 5z m690 -2345 c0 -54 0
-54 25 -45 15 6 34 6 49 0 40 -15 56 -48 56 -117 0 -56 -2 -63 -20 -63 -18 0
-20 7 -20 59 0 41 -5 65 -16 75 -37 37 -64 10 -71 -74 -5 -50 -9 -60 -24 -60
-18 0 -19 10 -19 133 0 74 3 137 7 140 3 4 12 7 20 7 9 0 13 -16 13 -55z
m-1902 18 c5 -16 30 -76 55 -135 45 -106 45 -108 23 -108 -17 0 -28 10 -41 40
-18 39 -19 40 -72 40 -53 0 -53 0 -69 -40 -13 -31 -22 -40 -40 -40 -27 0 -30
-12 41 158 41 97 50 112 70 112 16 0 26 -8 33 -27z m170 -90 l3 -113 59 0 c53
0 60 -2 60 -20 0 -18 -7 -20 -85 -20 l-85 0 0 136 c0 135 0 135 23 132 21 -3
22 -7 25 -115z m741 38 c27 -25 31 -36 31 -81 0 -45 -4 -56 -31 -81 l-31 -29
-255 0 c-264 0 -282 2 -315 44 -21 25 -24 105 -5 128 37 46 48 48 318 48 l257
0 31 -29z m354 -30 c10 -9 20 -34 24 -54 l6 -37 -68 0 -68 0 19 -21 c17 -19
36 -21 83 -8 8 2 16 -3 18 -13 3 -11 -7 -20 -32 -28 -66 -22 -125 20 -125 90
0 83 86 127 143 71z m205 18 l32 1 0 -90 0 -89 -37 -1 c-21 -1 -51 -1 -66 -2
-40 -1 -79 40 -80 84 -2 62 50 115 98 101 11 -3 35 -5 53 -4z m-394 -18 c23
-25 3 -38 -30 -20 -18 9 -27 10 -35 2 -14 -14 -3 -33 19 -33 32 0 62 -29 62
-60 0 -55 -84 -75 -125 -30 -22 24 -2 37 30 20 25 -13 55 -8 55 10 0 6 -20 19
-45 30 -38 16 -45 24 -45 48 0 15 5 33 12 40 19 19 82 15 102 -7z"/>
<path d="M2050 3595 c-301 -53 -538 -265 -626 -560 -22 -76 -26 -110 -27 -215
-1 -182 36 -310 128 -450 149 -224 388 -350 665 -350 319 0 588 169 720 453
70 147 91 351 56 517 -34 160 -143 334 -276 441 -184 146 -409 204 -640 164z"/>
</g>
</svg>
